<svg width="760" height="180" viewBox="0 0 760 180" fill="none" xmlns="http://www.w3.org/2000/svg">
  <rect width="760" height="180" rx="36" fill="#070707"/>
  <path d="M58 103C72 64 98 41 137 31C178 20 216 31 239 61C202 48 166 49 130 62C158 58 188 62 217 77C235 86 247 101 252 119H58Z" fill="url(#paint0_linear)"/>
  <path d="M79 126H231" stroke="#FFF8D6" stroke-width="12" stroke-linecap="round"/>
  <path d="M105 137C105 146.389 97.3888 154 88 154C78.6112 154 71 146.389 71 137C71 127.611 78.6112 120 88 120C97.3888 120 105 127.611 105 137Z" stroke="#D6A84F" stroke-width="10"/>
  <path d="M228 137C228 146.389 220.389 154 211 154C201.611 154 194 146.389 194 137C194 127.611 201.611 120 211 120C220.389 120 228 127.611 228 137Z" stroke="#D6A84F" stroke-width="10"/>
  <text x="300" y="82" fill="url(#paint1_linear)" font-family="Arial, Helvetica, sans-serif" font-size="46" font-weight="900" letter-spacing="8">BARAA RAED</text>
  <text x="305" y="125" fill="#F8F7F2" fill-opacity=".68" font-family="Arial, Helvetica, sans-serif" font-size="18" font-weight="700" letter-spacing="6">CAR SHOWROOM MANAGEMENT SYSTEM</text>
  <defs>
    <linearGradient id="paint0_linear" x1="58" y1="31" x2="252" y2="119" gradientUnits="userSpaceOnUse">
      <stop stop-color="#FFF8D6"/>
      <stop offset=".48" stop-color="#F3C96B"/>
      <stop offset="1" stop-color="#8E682E"/>
    </linearGradient>
    <linearGradient id="paint1_linear" x1="300" y1="47" x2="650" y2="95" gradientUnits="userSpaceOnUse">
      <stop stop-color="#FFF8D6"/>
      <stop offset=".5" stop-color="#F3C96B"/>
      <stop offset="1" stop-color="#96703A"/>
    </linearGradient>
  </defs>
</svg>
